HIERARCHY
ROOT Hips
{
  OFFSET 0.000000 98.000000 0.000000
  CHANNELS 6 Xposition Yposition Zposition Zrotation Xrotation Yrotation
  JOINT Spine
  {
    OFFSET 0.000000 12.000000 0.000000
    CHANNELS 3 Zrotation Xrotation Yrotation
    JOINT Chest
    {
      OFFSET 0.000000 15.000000 0.000000
      CHANNELS 3 Zrotation Xrotation Yrotation
      JOINT Neck
      {
        OFFSET 0.000000 13.000000 0.000000
        CHANNELS 3 Zrotation Xrotation Yrotation
        JOINT Head
        {
          OFFSET 0.000000 9.000000 0.000000
          CHANNELS 3 Zrotation Xrotation Yrotation
          End Site
          {
            OFFSET 0.000000 8.000000 0.000000
          }
        }
      }
      JOINT LeftShoulder
      {
        OFFSET 6.000000 11.000000 0.000000
        CHANNELS 3 Zrotation Xrotation Yrotation
        JOINT LeftArm
        {
          OFFSET 12.000000 0.000000 0.000000
          CHANNELS 3 Zrotation Xrotation Yrotation
          JOINT LeftForeArm
          {
            OFFSET 14.000000 0.000000 0.000000
            CHANNELS 3 Zrotation Xrotation Yrotation
            JOINT LeftHand
            {
              OFFSET 11.000000 0.000000 0.000000
              CHANNELS 3 Zrotation Xrotation Yrotation
              End Site
              {
                OFFSET 5.000000 0.000000 0.000000
              }
            }
          }
        }
      }
      JOINT RightShoulder
      {
        OFFSET -6.000000 11.000000 0.000000
        CHANNELS 3 Zrotation Xrotation Yrotation
        JOINT RightArm
        {
          OFFSET -12.000000 0.000000 0.000000
          CHANNELS 3 Zrotation Xrotation Yrotation
          JOINT RightForeArm
          {
            OFFSET -14.000000 0.000000 0.000000
            CHANNELS 3 Zrotation Xrotation Yrotation
            JOINT RightHand
            {
              OFFSET -11.000000 0.000000 0.000000
              CHANNELS 3 Zrotation Xrotation Yrotation
              End Site
              {
                OFFSET -5.000000 0.000000 0.000000
              }
            }
          }
        }
      }
    }
  }
  JOINT LeftUpLeg
  {
    OFFSET 7.000000 -9.000000 0.000000
    CHANNELS 3 Zrotation Xrotation Yrotation
    JOINT LeftLeg
    {
      OFFSET 0.000000 -36.000000 0.000000
      CHANNELS 3 Zrotation Xrotation Yrotation
      JOINT LeftFoot
      {
        OFFSET 0.000000 -35.000000 2.000000
        CHANNELS 3 Zrotation Xrotation Yrotation
        JOINT LeftToe
        {
          OFFSET 0.000000 -5.000000 13.000000
          CHANNELS 3 Zrotation Xrotation Yrotation
          End Site
          {
            OFFSET 0.000000 0.000000 7.000000
          }
        }
      }
    }
  }
  JOINT RightUpLeg
  {
    OFFSET -7.000000 -9.000000 0.000000
    CHANNELS 3 Zrotation Xrotation Yrotation
    JOINT RightLeg
    {
      OFFSET 0.000000 -36.000000 0.000000
      CHANNELS 3 Zrotation Xrotation Yrotation
      JOINT RightFoot
      {
        OFFSET 0.000000 -35.000000 2.000000
        CHANNELS 3 Zrotation Xrotation Yrotation
        JOINT RightToe
        {
          OFFSET 0.000000 -5.000000 13.000000
          CHANNELS 3 Zrotation Xrotation Yrotation
          End Site
          {
            OFFSET 0.000000 0.000000 7.000000
          }
        }
      }
    }
  }
}

MOTION
Frames: 12
Frame Time: 0.0333333
0.000000 0.000000 0.000000 0.000000 0.000000 0.000000 0.000000 0.000000 0.000000 -0.000000 0.000000 -0.000000 0.000000 -0.000000 0.000000 -0.000000 0.000000 -0.000000 8.000000 0.000000 -12.000000 28.000000 0.000000 0.000000 -18.000000 0.000000 0.000000 0.000000 0.000000 0.000000 -8.000000 0.000000 12.000000 -28.000000 0.000000 -0.000000 18.000000 0.000000 0.000000 -0.000000 0.000000 -0.000000 0.000000 0.000000 -0.000000 0.000000 8.000000 0.000000 0.000000 -10.000000 0.000000 0.000000 0.000000 0.000000 0.000000 0.000000 0.000000 0.000000 8.000000 0.000000 0.000000 -10.000000 0.000000 0.000000 0.000000 0.000000
0.471185 0.519779 0.458136 0.418114 0.415823 0.471185 0.522642 0.001003 0.418688 -0.418114 0.000717 -0.628031 0.104672 -0.000717 0.209416 -0.313585 0.157008 -0.164915 8.000000 0.000000 -12.000000 28.002580 4.390195 0.418688 -22.390195 1.045285 0.000000 1.663294 0.418114 0.001720 -8.000000 0.000000 12.000000 -28.002580 -4.390195 -0.418688 18.000000 -1.045285 0.000000 -1.663294 -0.418114 -0.001720 0.209057 3.344911 -2.355925 0.000000 8.000000 0.000000 0.000000 -12.090569 0.209057 0.000000 0.836228 0.000000 -0.209057 -3.344911 2.355925 0.000000 13.017366 0.000000 0.000000 -10.000000 -0.209057 0.000000 0.000000 0.000000
0.942047 1.016842 0.916193 0.831647 0.813473 0.942047 1.039558 0.007995 0.836228 -0.831647 0.005710 -1.254342 0.209057 -0.005710 0.418688 -0.623735 0.313585 -0.329717 8.000000 0.000000 -12.000000 28.020558 8.732291 0.836228 -26.732291 2.079117 0.000000 3.253893 0.831647 0.013705 -8.000000 0.000000 12.000000 -28.020558 -8.732291 -0.836228 18.000000 -2.079117 0.000000 -3.253893 -0.831647 -0.013705 0.415823 6.653174 -4.710236 0.000000 8.000000 0.000000 0.000000 -14.158234 0.415823 0.000000 1.663294 0.000000 -0.415823 -6.653174 4.710236 0.000000 17.979761 0.000000 0.000000 -10.000000 -0.415823 0.000000 0.000000 0.000000
1.412264 1.469463 1.374094 1.236068 1.175571 1.412264 1.545085 0.026798 1.251476 -1.236068 0.019141 -1.877214 0.312869 -0.019141 0.627673 -0.927051 0.469303 -0.494292 8.000000 0.000000 -12.000000 28.068908 12.978714 1.251476 -30.978714 3.090170 0.000000 4.702282 1.236068 0.045939 -8.000000 0.000000 12.000000 -28.068908 -12.978714 -1.251476 18.000000 -3.090170 0.000000 -4.702282 -1.236068 -0.045939 0.618034 9.888544 -7.061319 0.000000 8.000000 0.000000 0.000000 -16.180340 0.618034 0.000000 2.472136 0.000000 -0.618034 -9.888544 7.061319 0.000000 22.832816 0.000000 0.000000 -10.000000 -0.618034 0.000000 0.000000 0.000000
1.881512 1.857862 1.831758 1.626947 1.486290 1.881512 2.033683 0.062912 1.663294 -1.626947 0.044937 -2.494940 0.415823 -0.044937 0.836228 -1.220210 0.623735 -0.658529 8.000000 0.000000 -12.000000 28.161774 17.082939 1.663294 -35.082939 4.067366 0.000000 5.945159 1.626947 0.107849 -8.000000 0.000000 12.000000 -28.161774 -17.082939 -1.663294 18.000000 -4.067366 0.000000 -5.945159 -1.626947 -0.107849 0.813473 13.015573 -9.407562 0.000000 8.000000 0.000000 0.000000 -18.134733 0.813473 0.000000 3.253893 0.000000 -0.813473 -13.015573 9.407562 0.000000 27.523359 0.000000 0.000000 -10.000000 -0.813473 0.000000 0.000000 0.000000
2.349471 2.165064 2.289110 2.000000 1.732051 2.349471 2.500000 0.121363 2.070552 -2.000000 0.086688 -3.105829 0.517638 -0.086688 1.044210 -1.500000 0.776457 -0.822315 8.000000 0.000000 -12.000000 28.312077 21.000000 2.070552 -39.000000 5.000000 0.000000 6.928203 2.000000 0.208051 -8.000000 0.000000 12.000000 -28.312077 -21.000000 -2.070552 18.000000 -5.000000 0.000000 -6.928203 -2.000000 -0.208051 1.000000 16.000000 -11.747357 0.000000 8.000000 0.000000 0.000000 -20.000000 1.000000 0.000000 4.000000 0.000000 -1.000000 -16.000000 11.747357 0.000000 32.000000 0.000000 0.000000 -10.000000 -1.000000 0.000000 0.000000 0.000000
2.815820 2.377641 2.746068 2.351141 1.902113 2.815820 2.938926 0.206559 2.472136 -2.351141 0.147542 -3.708204 0.618034 -0.147542 1.251476 -1.763356 0.927051 -0.985537 8.000000 0.000000 -12.000000 28.531153 24.686981 2.472136 -42.686981 5.877853 0.000000 7.608452 2.351141 0.354102 -8.000000 0.000000 12.000000 -28.531153 -24.686981 -2.472136 18.000000 -5.877853 0.000000 -7.608452 -2.351141 -0.354102 1.175571 18.809128 -14.079102 0.000000 8.000000 0.000000 0.000000 -21.755705 1.175571 0.000000 4.702282 0.000000 -1.175571 -18.809128 14.079102 0.000000 36.213692 0.000000 0.000000 -10.000000 -1.175571 0.000000 0.000000 0.000000
3.280239 2.486305 3.202557 2.676522 1.989044 3.280239 3.345653 0.322170 2.866944 -2.676522 0.230122 -4.300415 0.716736 -0.230122 1.457884 -2.007392 1.075104 -1.148084 8.000000 0.000000 -12.000000 28.828438 28.103485 2.866944 -46.103485 6.691306 0.000000 7.956175 2.676522 0.552292 -8.000000 0.000000 12.000000 -28.828438 -28.103485 -2.866944 18.000000 -6.691306 0.000000 -7.956175 -2.676522 -0.552292 1.338261 21.412179 -16.401197 0.000000 8.000000 0.000000 0.000000 -23.382612 1.338261 0.000000 5.353045 0.000000 -1.338261 -21.412179 16.401197 0.000000 40.118269 0.000000 0.000000 -10.000000 -1.338261 0.000000 0.000000 0.000000
3.742410 2.486305 3.658496 2.972579 1.989044 3.742410 3.715724 0.471018 3.253893 -2.972579 0.336442 -4.880840 0.813473 -0.336442 1.663294 -2.229434 1.220210 -1.309844 8.000000 0.000000 -12.000000 29.211190 31.212083 3.253893 -49.212083 7.431448 0.000000 7.956175 2.972579 0.807460 -8.000000 0.000000 12.000000 -29.211190 -31.212083 -3.253893 18.000000 -7.431448 0.000000 -7.956175 -2.972579 -0.807460 1.486290 23.780634 -18.712052 0.000000 8.000000 0.000000 0.000000 -24.862897 1.486290 0.000000 5.945159 0.000000 -1.486290 -23.780634 18.712052 0.000000 43.670952 0.000000 0.000000 -10.000000 -1.486290 0.000000 0.000000 0.000000
4.202017 2.377641 4.113809 3.236068 1.902113 4.202017 4.045085 0.654996 3.631924 -3.236068 0.467854 -5.447886 0.907981 -0.467854 1.867563 -2.427051 1.361971 -1.470706 8.000000 0.000000 -12.000000 29.684274 33.978714 3.631924 -51.978714 8.090170 0.000000 7.608452 3.236068 1.122849 -8.000000 0.000000 12.000000 -29.684274 -33.978714 -3.631924 18.000000 -8.090170 0.000000 -7.608452 -3.236068 -1.122849 1.618034 25.888544 -21.010083 0.000000 8.000000 0.000000 0.000000 -26.180340 1.618034 0.000000 6.472136 0.000000 -1.618034 -25.888544 21.010083 0.000000 46.832816 0.000000 0.000000 -10.000000 -1.618034 0.000000 0.000000 0.000000
4.658743 2.165064 4.568417 3.464102 1.732051 4.658743 4.330127 0.875000 4.000000 -3.464102 0.625000 -6.000000 1.000000 -0.625000 2.070552 -2.598076 1.500000 -1.630560 8.000000 0.000000 -12.000000 30.250000 36.373067 4.000000 -54.373067 8.660254 0.000000 6.928203 3.464102 1.500000 -8.000000 0.000000 12.000000 -30.250000 -36.373067 -4.000000 18.000000 -8.660254 0.000000 -6.928203 -3.464102 -1.500000 1.732051 27.712813 -23.293714 0.000000 8.000000 0.000000 0.000000 -27.320508 1.732051 0.000000 6.928203 0.000000 -1.732051 -27.712813 23.293714 0.000000 49.569219 0.000000 0.000000 -10.000000 -1.732051 0.000000 0.000000 0.000000
5.112276 1.857862 5.022242 3.654182 1.486290 5.112276 4.567727 1.130900 4.357112 -3.654182 0.807786 -6.535668 1.089278 -0.807786 2.272123 -2.740636 1.633917 -1.789297 8.000000 0.000000 -12.000000 30.908029 38.368909 4.357112 -56.368909 9.135455 0.000000 5.945159 3.654182 1.938686 -8.000000 0.000000 12.000000 -30.908029 -38.368909 -4.357112 18.000000 -9.135455 0.000000 -5.945159 -3.654182 -1.938686 1.827091 29.233455 -25.561381 0.000000 8.000000 0.000000 0.000000 -28.270909 1.827091 0.000000 7.308364 0.000000 -1.827091 -29.233455 25.561381 0.000000 51.850182 0.000000 0.000000 -10.000000 -1.827091 0.000000 0.000000 0.000000
